<svg width="54" height="54" viewBox="0 0 54 54" fill="none" xmlns="http://www.w3.org/2000/svg">
<path d="M9.78125 28.287L33.6381 40.8101L37.6259 38.9911L15.0983 16.3936L9.78125 28.287Z" fill="#62E000"/>
<path d="M6.35352 35.8427L24.0538 45.0777L30.98 41.9294L8.80217 30.3857L6.35352 35.8427Z" fill="#62E000"/>
<path d="M0.126827 49.7644C-0.572788 52.283 1.73594 54.5218 4.25456 53.8921L11.8804 50.5339L2.15571 45.4268L0.126827 49.7644Z" fill="#62E000"/>
<path d="M2.99561 43.3291L14.4693 49.3458L21.3955 46.2675L5.44426 37.8721L2.99561 43.3291Z" fill="#62E000"/>
<path d="M26.1525 21.9905C26.5023 22.3404 27.132 22.3404 27.4818 21.9905L29.7205 19.6818C30.0703 19.332 30.0703 18.7723 29.7205 18.4225C29.3707 18.0727 28.811 18.0727 28.4612 18.4225L26.1525 20.7312C25.8027 21.081 25.8027 21.6407 26.1525 21.9905Z" fill="#62E000"/>
<path d="M30.6999 16.0436C30.35 16.3934 30.35 16.9531 30.6999 17.3029C31.0497 17.6527 31.6094 17.6527 31.9592 17.3029L33.3584 15.9037C38.5355 10.5866 34.3379 5.33949 34.3379 5.26953C33.988 4.84976 33.4284 4.84976 33.0785 5.12961C32.6588 5.47941 32.6588 6.03911 32.9386 6.38891C33.0785 6.52884 36.0869 10.4467 32.0991 14.5744L30.6999 16.0436Z" fill="#62E000"/>
<path d="M34.6877 24.1598L32.0292 26.6784C31.6794 27.0282 31.6794 27.5879 32.0292 27.9377C32.379 28.2875 32.9387 28.2875 33.2885 27.9377L35.947 25.4191C36.2969 25.0693 36.2969 24.5096 35.947 24.1598C35.6672 23.81 35.1075 23.81 34.6877 24.1598Z" fill="#62E000"/>
<path d="M36.9266 23.3205C37.2764 23.6703 37.8361 23.6703 38.1859 23.3205L39.5152 22.0612C39.7251 21.8513 39.935 21.7114 40.1449 21.5015C40.5646 21.1517 40.5646 20.592 40.2848 20.2422C39.935 19.8224 39.3753 19.8224 39.0255 20.1023C38.7456 20.3121 38.5358 20.522 38.2559 20.7319L36.9266 21.9912C36.5768 22.411 36.5069 22.9707 36.9266 23.3205C36.8567 23.3205 36.8567 23.3205 36.9266 23.3205Z" fill="#62E000"/>
<path d="M48.96 21.0815C49.3098 20.6618 49.2399 20.1021 48.8201 19.8222C48.6802 19.7523 46.1615 17.7234 42.8034 18.2831C42.3137 18.353 41.9639 18.8428 42.0338 19.3325C42.0338 19.5424 42.1737 19.6823 42.3137 19.8222C42.5235 20.0321 42.8034 20.1021 43.0832 20.1021C45.6718 19.6823 47.6307 21.2215 47.6307 21.2914C48.0505 21.5713 48.6802 21.5013 48.96 21.0815Z" fill="#62E000"/>
<path d="M21.3253 17.0932C21.815 17.303 22.3048 17.0932 22.5147 16.6034L23.9839 13.1053C24.1937 12.6156 23.9839 12.1259 23.4941 11.916C23.0044 11.7061 22.5147 11.916 22.3048 12.4057L20.8356 15.9038C20.6957 16.2536 20.7656 16.6734 21.0455 16.8833C21.1154 16.9532 21.1854 17.0232 21.3253 17.0932Z" fill="#62E000"/>
<path d="M21.2554 1.77169C21.3954 1.84165 24.8934 3.9405 23.914 8.20815C23.914 8.27812 23.844 8.41804 23.844 8.488C23.774 8.83781 23.844 9.11765 24.0539 9.3975C24.1938 9.53742 24.3337 9.60738 24.4737 9.60738C24.9634 9.74731 25.4531 9.46746 25.593 8.97773C25.593 8.83781 25.663 8.76785 25.663 8.62792C26.7124 4.08042 23.774 1.14204 22.095 0.162579C21.6752 -0.117267 21.1155 0.0926171 20.8357 0.512386C20.6258 0.932155 20.7657 1.49185 21.2554 1.77169Z" fill="#62E000"/>
<path d="M44.832 29.5464C44.6221 29.0566 44.1324 28.8467 43.6427 29.0566L37.4861 31.6452C36.9963 31.8551 36.7864 32.3448 36.9963 32.8345C37.0663 32.9745 37.1362 33.0444 37.2062 33.1144C37.4861 33.3942 37.8359 33.4642 38.1857 33.3243L44.3423 30.8057C44.832 30.5958 45.0419 30.0361 44.832 29.5464Z" fill="#62E000"/>
<path d="M53.8575 32.065C53.7875 31.9251 52.3183 29.3365 49.17 28.497C48.6803 28.357 48.1906 28.6369 48.0506 29.1266C47.9807 29.4764 48.0507 29.7563 48.2605 29.9661C48.4005 30.1061 48.5404 30.176 48.6803 30.176C51.059 30.8057 52.2483 32.8346 52.2483 32.8346C52.5282 33.2543 53.0179 33.3943 53.5077 33.1844C53.9974 33.1144 54.1373 32.5547 53.8575 32.065Z" fill="#62E000"/>
<path d="M30.9797 3.45111C31.5206 3.45111 31.9592 3.01259 31.9592 2.47165C31.9592 1.93071 31.5206 1.49219 30.9797 1.49219C30.4388 1.49219 30.0002 1.93071 30.0002 2.47165C30.0002 3.01259 30.4388 3.45111 30.9797 3.45111Z" fill="#62E000"/>
<path d="M18.6665 11.2861C19.2074 11.2861 19.6459 10.8476 19.6459 10.3066C19.6459 9.76567 19.2074 9.32715 18.6665 9.32715C18.1255 9.32715 17.687 9.76567 17.687 10.3066C17.687 10.8476 18.1255 11.2861 18.6665 11.2861Z" fill="#62E000"/>
<path d="M52.0381 24.579C52.579 24.579 53.0175 24.1405 53.0175 23.5996C53.0175 23.0586 52.579 22.6201 52.0381 22.6201C51.4971 22.6201 51.0586 23.0586 51.0586 23.5996C51.0586 24.1405 51.4971 24.579 52.0381 24.579Z" fill="#62E000"/>
<path d="M43.9231 36.2626C44.464 36.2626 44.9025 35.8241 44.9025 35.2832C44.9025 34.7422 44.464 34.3037 43.9231 34.3037C43.3821 34.3037 42.9436 34.7422 42.9436 35.2832C42.9436 35.8241 43.3821 36.2626 43.9231 36.2626Z" fill="#62E000"/>
<path d="M40.4243 10.3076C40.9652 10.3076 41.4037 9.86904 41.4037 9.3281C41.4037 8.78715 40.9652 8.34863 40.4243 8.34863C39.8833 8.34863 39.4448 8.78715 39.4448 9.3281C39.4448 9.86904 39.8833 10.3076 40.4243 10.3076Z" fill="#62E000"/>
</svg>
