<svg width="41" height="37" viewBox="0 0 41 37" fill="none" xmlns="http://www.w3.org/2000/svg">
<path d="M40.4567 11.4289L34.85 8.46889V1.02778C34.85 0.755194 34.742 0.493775 34.5498 0.301029C34.3575 0.108284 34.0968 0 33.825 0H28.7C28.4281 0 28.1674 0.108284 27.9752 0.301029C27.783 0.493775 27.675 0.755194 27.675 1.02778V4.67639L20.9817 1.15111C20.8335 1.07193 20.668 1.03052 20.5 1.03052C20.332 1.03052 20.1666 1.07193 20.0183 1.15111L0.543267 11.4289C0.379596 11.5163 0.242632 11.6465 0.146965 11.8058C0.0512979 11.9651 0.000512162 12.1474 1.73846e-05 12.3333V18.5C-0.00101278 18.6774 0.043757 18.852 0.129972 19.0069C0.216187 19.1618 0.340913 19.2917 0.492017 19.3839C0.647837 19.4741 0.824592 19.5216 1.00452 19.5216C1.18444 19.5216 1.3612 19.4741 1.51702 19.3839L4.10001 18.0375V35.9722C4.10001 36.2448 4.208 36.5062 4.40023 36.699C4.59245 36.8917 4.85317 37 5.12501 37H35.875C36.1468 37 36.4075 36.8917 36.5998 36.699C36.792 36.5062 36.9 36.2448 36.9 35.9722V18.0375L39.4932 19.4044C39.6413 19.4846 39.8067 19.5269 39.975 19.5278C40.162 19.5262 40.3455 19.4766 40.508 19.3839C40.6591 19.2917 40.7838 19.1618 40.87 19.0069C40.9562 18.852 41.001 18.6774 41 18.5V12.3333C40.9995 12.1474 40.9487 11.9651 40.853 11.8058C40.7574 11.6465 40.6204 11.5163 40.4567 11.4289ZM16.4 34.9444V24.6667H24.6V34.9444H16.4ZM34.85 34.9444H26.65V23.6389C26.65 23.3663 26.542 23.1049 26.3498 22.9121C26.1576 22.7194 25.8968 22.6111 25.625 22.6111H15.375C15.1032 22.6111 14.8424 22.7194 14.6502 22.9121C14.458 23.1049 14.35 23.3663 14.35 23.6389V34.9444H6.15001V16.9583L20.5 9.38361L34.85 16.9583V34.9444ZM38.95 16.7939L20.9817 7.31778C20.8335 7.2386 20.668 7.19719 20.5 7.19719C20.332 7.19719 20.1666 7.2386 20.0183 7.31778L2.05002 16.7939V12.95L20.5 3.21694L28.2182 7.32806C28.3741 7.41826 28.5508 7.46575 28.7307 7.46575C28.9107 7.46575 29.0874 7.41826 29.2432 7.32806C29.3943 7.23582 29.5191 7.10594 29.6053 6.95106C29.6915 6.79617 29.7363 6.62154 29.7352 6.44417V2.05556H32.8102V9.08556C32.8089 9.27323 32.8588 9.45769 32.9545 9.61894C33.0503 9.7802 33.1883 9.91207 33.3535 10.0003L38.95 12.95V16.7939Z" fill="#62E000"/>
</svg>
