<svg width="44" height="44" viewBox="0 0 44 44" fill="none" xmlns="http://www.w3.org/2000/svg">
<path d="M22 0C9.8671 0 0 9.86709 0 22C0 34.1329 9.8671 44 22 44C34.1329 44 44 34.1329 44 22C44 9.86709 34.1329 0 22 0ZM22 2.93333C32.5476 2.93333 41.0667 11.4524 41.0667 22C41.0667 26.089 39.7811 29.8837 37.5986 32.9847C34.045 27.827 28.3887 24.4444 22 24.4444C15.6113 24.4444 9.95495 27.827 6.40141 32.9847C4.21892 29.8837 2.93333 26.089 2.93333 22C2.93333 11.4524 11.4524 2.93333 22 2.93333ZM22 4.88889C17.5753 4.88889 14.1778 8.95184 14.1778 13.6889C14.1778 18.4259 17.5753 22.4889 22 22.4889C26.4247 22.4889 29.8222 18.4259 29.8222 13.6889C29.8222 8.95184 26.4247 4.88889 22 4.88889ZM22 7.82222C24.5955 7.82222 26.8889 10.3258 26.8889 13.6889C26.8889 17.052 24.5955 19.5556 22 19.5556C19.4045 19.5556 17.1111 17.052 17.1111 13.6889C17.1111 10.3258 19.4045 7.82222 22 7.82222ZM22 27.3778C27.6256 27.3778 32.6184 30.4931 35.643 35.3375C32.1836 38.8766 27.3523 41.0667 22 41.0667C16.6477 41.0667 11.8164 38.8766 8.35697 35.3375C11.3816 30.4931 16.3744 27.3778 22 27.3778Z" fill="#62E000"/>
</svg>
