<svg width="194" height="35" viewBox="0 0 194 35" fill="none" xmlns="http://www.w3.org/2000/svg">
<path d="M17.5 35C27.165 35 35 27.165 35 17.5C35 7.83502 27.165 0 17.5 0C7.83502 0 0 7.83502 0 17.5C0 27.165 7.83502 35 17.5 35Z" fill="url(#paint0_linear_1_871)"/>
<path fill-rule="evenodd" clip-rule="evenodd" d="M49.703 28.9897C47.846 28.9897 46.249 28.4937 44.911 27.5017C43.879 26.7367 43.072 25.7467 42.489 24.5327C42.202 23.9347 42.503 23.2147 43.124 22.9807L44.831 22.3427C45.334 22.1528 45.894 22.3477 46.184 22.8027C46.545 23.3647 46.972 23.8407 47.464 24.2247C48.174 24.7797 48.957 25.0567 49.812 25.0567C50.704 25.0567 51.405 24.8888 51.915 24.5527C52.425 24.2167 52.68 23.7287 52.68 23.0927C52.68 22.6737 52.493 22.3007 52.12 21.9707C51.747 21.6438 51.355 21.4027 50.945 21.2477C50.536 21.0937 49.903 20.8807 49.048 20.6057C48.483 20.4257 48.06 20.2828 47.778 20.1827C47.495 20.0837 47.091 19.9248 46.562 19.7048C46.034 19.4867 45.635 19.2867 45.361 19.1037C45.088 18.9237 44.761 18.6768 44.378 18.3667C43.996 18.0567 43.709 17.7347 43.517 17.3977C43.327 17.0608 43.158 16.6508 43.013 16.1688C42.867 15.6858 42.794 15.1737 42.794 14.6267C42.794 13.0957 43.395 11.8127 44.597 10.7747C45.798 9.73775 47.428 9.21875 49.484 9.21875C51.196 9.21875 52.634 9.66575 53.799 10.5567C54.521 11.1097 55.093 11.7608 55.515 12.5108C55.93 13.2478 55.542 14.1848 54.736 14.4458L53.363 14.8898C52.83 15.0617 52.276 14.8377 51.94 14.3898C51.318 13.5638 50.427 13.1508 49.266 13.1508C47.719 13.1508 46.945 13.6707 46.945 14.7077C46.945 14.9447 47.017 15.1537 47.163 15.3358C47.307 15.5178 47.573 15.7007 47.956 15.8837C48.338 16.0637 48.652 16.2007 48.897 16.2917C49.143 16.3847 49.575 16.5378 50.195 16.7578C50.849 16.9738 51.355 17.1467 51.71 17.2747C52.065 17.4028 52.552 17.5977 53.171 17.8617C53.79 18.1267 54.277 18.4078 54.632 18.7087C54.987 19.0097 55.355 19.3687 55.738 19.7867C56.12 20.2057 56.397 20.6978 56.571 21.2607C56.744 21.8257 56.831 22.4457 56.831 23.1187C56.831 24.9207 56.157 26.3498 54.809 27.4058C53.462 28.4618 51.76 28.9897 49.703 28.9897Z" fill="#192346"/>
<path fill-rule="evenodd" clip-rule="evenodd" d="M68.2997 21.1254L66.6607 17.0014C66.4047 16.3834 66.2147 15.8464 66.0877 15.3904C66.0147 15.7004 65.8227 16.2364 65.5147 17.0014L63.8757 21.1254H68.2997ZM70.7617 27.7444L69.6927 24.9474H62.5107L61.4407 27.7444C61.2297 28.2974 60.6987 28.6614 60.1087 28.6614H58.6537C57.6477 28.6614 56.9567 27.6474 57.3257 26.7124L63.7377 10.4494C63.9527 9.90439 64.4797 9.54639 65.0657 9.54639H67.1117C67.6957 9.54639 68.2227 9.90339 68.4377 10.4484L74.8727 26.7104C75.2427 27.6464 74.5537 28.6614 73.5467 28.6614H72.0937C71.5027 28.6614 70.9727 28.2974 70.7617 27.7444Z" fill="#192346"/>
<path fill-rule="evenodd" clip-rule="evenodd" d="M76.7098 27.4174V10.7914C76.7098 10.1054 77.2678 9.54639 77.9548 9.54639H88.7918C89.4808 9.54639 90.0358 10.1054 90.0358 10.7914V12.2344C90.0358 12.9224 89.4808 13.4794 88.7918 13.4794H80.8608V16.8374H85.3778C86.0648 16.8374 86.6228 17.3964 86.6228 18.0824V19.5254C86.6228 20.2134 86.0648 20.7714 85.3778 20.7714H80.8608V27.4174C80.8608 28.1044 80.3038 28.6614 79.6158 28.6614H77.9548C77.2678 28.6614 76.7098 28.1044 76.7098 27.4174Z" fill="#192346"/>
<path fill-rule="evenodd" clip-rule="evenodd" d="M91.2098 27.3686V10.8406C91.2098 10.1256 91.7888 9.54663 92.5038 9.54663H103.652C104.367 9.54663 104.946 10.1256 104.946 10.8406V12.1856C104.946 12.8996 104.367 13.4786 103.652 13.4786H95.3608V16.8376H103.893C104.606 16.8376 105.186 17.4166 105.186 18.1316V19.4756C105.186 20.1906 104.606 20.7696 103.893 20.7696H95.3608V24.7026H104.199C104.913 24.7026 105.492 25.2816 105.492 25.9956V27.3686C105.492 28.0826 104.913 28.6616 104.199 28.6616H92.5038C91.7888 28.6616 91.2098 28.0826 91.2098 27.3686Z" fill="#192346"/>
<path fill-rule="evenodd" clip-rule="evenodd" d="M124.989 27.7601V19.8521C124.989 19.7251 124.887 19.6231 124.76 19.6231H115.879C115.753 19.6231 115.65 19.7251 115.65 19.8521V27.7601C115.65 28.2581 115.247 28.6611 114.749 28.6611H114.639C114.142 28.6611 113.739 28.2581 113.739 27.7601V10.4481C113.739 9.95014 114.142 9.54614 114.639 9.54614H114.749C115.247 9.54614 115.65 9.95014 115.65 10.4481V17.5921C115.65 17.7181 115.753 17.8221 115.879 17.8221H124.76C124.887 17.8221 124.989 17.7181 124.989 17.5921V10.4481C124.989 9.95014 125.393 9.54614 125.89 9.54614H126C126.498 9.54614 126.901 9.95014 126.901 10.4481V27.7601C126.901 28.2581 126.498 28.6611 126 28.6611H125.89C125.393 28.6611 124.989 28.2581 124.989 27.7601Z" fill="#192346"/>
<path fill-rule="evenodd" clip-rule="evenodd" d="M138.232 27.269C139.288 27.269 140.211 27.028 141.003 26.545C141.796 26.063 142.416 25.416 142.862 24.607C143.307 23.797 143.635 22.927 143.844 21.999C144.053 21.071 144.159 20.106 144.159 19.104C144.159 17.629 143.981 16.305 143.626 15.131C143.271 13.956 142.633 12.964 141.714 12.155C140.795 11.345 139.634 10.94 138.232 10.94C137.176 10.94 136.253 11.181 135.461 11.665C134.669 12.145 134.049 12.792 133.604 13.602C133.158 14.413 132.83 15.281 132.621 16.209C132.412 17.138 132.307 18.103 132.307 19.104C132.307 20.58 132.485 21.904 132.839 23.079C133.194 24.251 133.832 25.245 134.751 26.054C135.669 26.865 136.831 27.269 138.232 27.269ZM141.947 28.129C140.89 28.704 139.653 28.99 138.232 28.99C136.813 28.99 135.575 28.704 134.519 28.129C133.461 27.556 132.639 26.782 132.047 25.808C131.456 24.834 131.019 23.789 130.737 22.668C130.455 21.548 130.314 20.361 130.314 19.104C130.314 17.848 130.455 16.662 130.737 15.54C131.019 14.421 131.456 13.374 132.047 12.401C132.639 11.426 133.461 10.653 134.519 10.081C135.575 9.50499 136.813 9.21899 138.232 9.21899C139.653 9.21899 140.89 9.50499 141.947 10.081C143.003 10.653 143.826 11.426 144.418 12.401C145.009 13.374 145.446 14.421 145.729 15.54C146.01 16.662 146.152 17.848 146.152 19.104C146.152 20.361 146.01 21.548 145.729 22.668C145.446 23.789 145.009 24.834 144.418 25.808C143.826 26.782 143.003 27.556 141.947 28.129Z" fill="#192346"/>
<path fill-rule="evenodd" clip-rule="evenodd" d="M155.982 28.9899C151.613 28.9899 149.428 26.5139 149.428 21.5619V10.4479C149.428 9.95085 149.833 9.54785 150.33 9.54785H150.439C150.936 9.54785 151.339 9.95085 151.339 10.4479V21.5619C151.339 25.3679 152.887 27.2689 155.982 27.2689C159.077 27.2689 160.625 25.3679 160.625 21.5619V10.4479C160.625 9.95085 161.028 9.54785 161.526 9.54785H161.635C162.132 9.54785 162.536 9.95085 162.536 10.4479V21.5619C162.536 26.5139 160.351 28.9899 155.982 28.9899Z" fill="#192346"/>
<path fill-rule="evenodd" clip-rule="evenodd" d="M172.039 28.9897C170.491 28.9897 169.144 28.6168 167.998 27.8708C167.203 27.3528 166.588 26.7537 166.151 26.0697C165.849 25.5957 166.098 24.9597 166.626 24.7667L166.765 24.7177C167.149 24.5767 167.587 24.7107 167.809 25.0537C168.185 25.6357 168.677 26.1197 169.281 26.5057C170.082 27.0137 171.011 27.2687 172.066 27.2687C173.322 27.2687 174.31 26.9657 175.029 26.3547C175.749 25.7447 176.108 24.8757 176.108 23.7467C176.108 22.6737 175.717 21.7847 174.935 21.0847C174.151 20.3847 173.104 19.7867 171.794 19.2957C171.011 19.0057 170.333 18.7147 169.759 18.4227C169.185 18.1317 168.602 17.7617 168.012 17.3157C167.42 16.8697 166.969 16.3377 166.66 15.7188C166.35 15.0988 166.195 14.4167 166.195 13.6708C166.195 12.4138 166.705 11.3577 167.725 10.5027C168.744 9.64675 170.109 9.21875 171.821 9.21875C173.204 9.21875 174.369 9.50175 175.316 10.0658C175.856 10.3878 176.287 10.7627 176.608 11.1927C176.974 11.6807 176.74 12.3867 176.163 12.5828L176.039 12.6248C175.67 12.7498 175.276 12.6128 175.032 12.3077C174.782 11.9957 174.453 11.7207 174.046 11.4857C173.418 11.1217 172.649 10.9397 171.739 10.9397C170.628 10.9397 169.755 11.1848 169.117 11.6778C168.48 12.1688 168.162 12.8238 168.162 13.6428C168.162 14.1358 168.275 14.5718 168.503 14.9538C168.73 15.3358 169.076 15.6818 169.541 15.9918C170.005 16.3018 170.451 16.5547 170.879 16.7578C171.307 16.9567 171.866 17.1927 172.559 17.4667C173.305 17.7587 173.965 18.0617 174.538 18.3817C175.111 18.6997 175.685 19.1037 176.259 19.5947C176.832 20.0877 177.277 20.6787 177.597 21.3707C177.914 22.0627 178.075 22.8368 178.075 23.6917C178.075 25.3487 177.519 26.6458 176.408 27.5837C175.298 28.5208 173.842 28.9897 172.039 28.9897Z" fill="#192346"/>
<path fill-rule="evenodd" clip-rule="evenodd" d="M181.624 28.4331V9.77514C181.624 9.64914 181.727 9.54614 181.853 9.54614H191.618C192.116 9.54614 192.52 9.95214 192.52 10.4481V10.4751C192.52 10.9731 192.116 11.3761 191.618 11.3761H183.764C183.638 11.3761 183.535 11.4791 183.535 11.6051V17.6471C183.535 17.7731 183.638 17.8751 183.764 17.8751H188.696C189.193 17.8751 189.598 18.2791 189.598 18.7771C189.598 19.2741 189.193 19.6781 188.696 19.6781H183.764C183.638 19.6781 183.535 19.7801 183.535 19.9071V26.6041C183.535 26.7301 183.638 26.8321 183.764 26.8321H192.219C192.717 26.8321 193.12 27.2361 193.12 27.7341V27.7601C193.12 28.2581 192.717 28.6621 192.219 28.6621H181.853C181.727 28.6621 181.624 28.5601 181.624 28.4331Z" fill="#192346"/>
<path fill-rule="evenodd" clip-rule="evenodd" d="M25.953 20.2191H24.299V25.6491C24.299 25.9781 24.029 26.2451 23.701 26.2451H19.882H19.791V22.1781C19.791 21.6311 19.344 21.1851 18.797 21.1851H17.473C16.926 21.1851 16.477 21.6311 16.477 22.1781V26.1981C16.433 26.2451 16.344 26.2451 16.296 26.2451H12.295C11.967 26.2451 11.697 25.9781 11.697 25.6491V20.2191H10.364C9.809 20.2191 9.581 19.5311 9.949 19.2091L16.219 13.1191C16.455 12.8921 16.848 12.9691 16.976 13.2731L17.79 14.7581C17.965 15.0771 18.419 15.0901 18.611 14.7821L19.641 13.1351C19.762 12.8981 20.081 12.8451 20.267 13.0351L26.368 19.2091C26.736 19.5771 26.459 20.2191 25.953 20.2191Z" fill="white"/>
<path fill-rule="evenodd" clip-rule="evenodd" d="M17.3671 12.4975C17.2021 12.3605 17.1351 12.1395 17.1961 11.9335C17.4281 11.1595 17.7751 10.2485 18.3051 9.28247C19.1141 7.81147 20.0591 6.73547 20.8211 6.00647C20.9151 5.91547 21.0621 5.92447 21.1511 6.01847L23.1641 8.20747C23.2571 8.30947 23.2401 8.46647 23.1311 8.54847C22.8241 8.77547 22.5121 9.03647 22.2011 9.33247C20.6381 10.8265 19.2791 11.7815 18.6921 13.1525C18.6201 13.3225 18.4001 13.3705 18.2561 13.2575C17.5991 12.7405 17.6791 12.7575 17.3671 12.4975Z" fill="white"/>
<defs>
<linearGradient id="paint0_linear_1_871" x1="17.5" y1="0" x2="17.5" y2="35" gradientUnits="userSpaceOnUse">
<stop stop-color="#62E000"/>
<stop offset="1" stop-color="#92DD5F"/>
</linearGradient>
</defs>
</svg>
